<?xml version="1.0" standalone="no"?>
<!DOCTYPE svg PUBLIC "-//W3C//DTD SVG 20010904//EN"
 "http://www.w3.org/TR/2001/REC-SVG-20010904/DTD/svg10.dtd">
<svg version="1.0" xmlns="http://www.w3.org/2000/svg"
 width="592.000000pt" height="592.000000pt" viewBox="0 0 592.000000 592.000000"
 preserveAspectRatio="xMidYMid meet">
<metadata>
Created by potrace 1.14, written by Peter Selinger 2001-2017
</metadata>
<g transform="translate(0.000000,592.000000) scale(0.100000,-0.100000)"
fill="#000000" stroke="none">
<path d="M1479 5916 c-2 -2 -26 -6 -54 -10 -55 -6 -71 -9 -130 -24 -133 -34
-209 -63 -306 -115 -106 -58 -129 -72 -129 -79 0 -5 -5 -8 -11 -8 -19 0 -171
-133 -230 -200 -30 -35 -60 -69 -66 -76 -7 -7 -13 -17 -13 -22 0 -6 -4 -12 -8
-14 -19 -7 -129 -204 -163 -293 -62 -159 -89 -318 -84 -505 4 -124 9 -195 15
-195 1 0 3 -15 6 -34 5 -43 41 -170 54 -193 6 -10 10 -23 10 -29 0 -15 84
-182 109 -218 12 -16 21 -34 21 -39 0 -5 7 -12 15 -16 8 -3 15 -11 15 -17 0
-11 102 -133 141 -169 9 -8 58 -53 109 -100 51 -47 109 -101 130 -120 98 -91
222 -205 241 -221 27 -24 53 -17 97 25 40 38 53 50 187 171 159 144 177 163
166 183 -8 15 -119 121 -215 207 -13 11 -65 59 -117 106 -52 48 -120 110 -153
140 -101 92 -189 236 -216 351 -7 29 -16 67 -20 85 -13 51 -4 233 14 298 56
201 186 364 371 464 33 18 67 35 75 37 8 2 47 12 85 22 166 43 371 18 530 -65
103 -53 175 -116 380 -328 392 -406 422 -435 483 -462 42 -18 76 -26 127 -27
149 -3 181 16 385 224 91 92 237 241 326 331 88 90 171 171 183 179 13 8 40
26 60 40 57 41 179 89 271 108 295 61 589 -58 751 -305 43 -65 85 -150 92
-190 2 -10 7 -25 10 -33 42 -107 24 -349 -36 -480 -21 -45 -84 -151 -96 -160
-4 -3 -16 -16 -26 -30 -11 -14 -69 -70 -130 -125 -60 -55 -115 -104 -121 -110
-6 -5 -53 -48 -104 -95 -51 -47 -110 -101 -130 -120 -21 -19 -73 -66 -115
-105 -43 -38 -93 -83 -110 -100 -18 -16 -74 -68 -125 -115 -169 -153 -203
-185 -243 -222 -22 -20 -73 -68 -115 -105 -41 -37 -90 -81 -108 -98 -38 -36
-207 -190 -243 -223 -14 -13 -62 -56 -105 -95 -90 -82 -82 -75 -156 -144 -31
-29 -68 -54 -84 -57 -28 -5 -64 12 -96 44 -8 8 -58 53 -110 100 -52 47 -102
92 -110 100 -37 37 -92 80 -103 80 -14 0 -57 -38 -302 -265 -18 -16 -51 -47
-74 -67 -22 -21 -41 -46 -41 -56 0 -10 17 -33 38 -51 20 -19 82 -75 137 -126
55 -51 114 -105 130 -120 17 -15 68 -61 114 -104 45 -42 97 -89 115 -105 87
-79 176 -114 290 -114 115 0 192 33 295 126 56 51 180 165 220 202 54 50 120
111 251 230 63 57 120 109 126 115 6 5 53 48 104 95 51 47 105 96 120 110 15
14 66 61 115 105 48 44 100 91 115 105 15 14 71 66 125 115 54 50 114 105 134
124 20 18 72 65 115 105 44 39 107 96 139 126 33 30 72 66 87 80 15 14 68 62
117 108 50 45 101 92 114 103 190 164 322 345 398 544 13 33 27 69 32 80 14
32 48 198 56 272 8 88 8 190 -2 278 -4 39 -8 78 -8 88 -1 9 -5 17 -10 17 -4 0
-5 4 -2 10 12 20 -51 213 -110 331 -123 250 -329 460 -574 587 -53 27 -118 57
-146 67 -27 9 -59 21 -70 25 -11 5 -33 11 -50 15 -16 3 -50 10 -75 16 -83 18
-105 20 -245 24 -126 4 -200 -3 -325 -28 -53 -11 -198 -61 -257 -89 -53 -25
-187 -109 -203 -127 -3 -3 -27 -24 -55 -46 -131 -104 -326 -317 -450 -490 -31
-44 -64 -84 -72 -89 -23 -13 -60 12 -87 58 -13 23 -34 52 -45 65 -12 13 -21
27 -21 30 0 3 -13 20 -28 38 -15 17 -43 51 -62 75 -68 86 -287 295 -387 370
-161 121 -294 176 -538 224 -33 6 -320 15 -326 10z"/>
<path d="M2857 4199 c-45 -10 -131 -53 -155 -77 -10 -9 -54 -49 -98 -89 -43
-39 -100 -91 -125 -115 -26 -23 -84 -77 -129 -118 -45 -41 -95 -86 -110 -100
-15 -14 -69 -63 -120 -110 -51 -47 -105 -96 -120 -110 -15 -14 -69 -63 -120
-110 -51 -47 -112 -103 -136 -125 -23 -22 -80 -74 -125 -115 -45 -41 -94 -86
-109 -100 -14 -14 -71 -65 -126 -115 -118 -107 -96 -87 -230 -211 -60 -55
-131 -120 -158 -145 -27 -24 -63 -57 -81 -74 -17 -16 -71 -66 -119 -110 -120
-108 -182 -171 -214 -214 -15 -20 -29 -38 -32 -41 -19 -18 -63 -86 -98 -150
-119 -218 -171 -427 -166 -672 2 -125 3 -135 30 -267 56 -272 229 -550 456
-734 126 -102 312 -202 433 -233 6 -2 37 -10 70 -19 110 -31 209 -43 340 -43
114 1 162 6 300 33 48 9 185 55 245 82 147 66 397 278 561 473 30 36 56 67 59
70 11 11 68 89 105 143 22 32 47 63 57 68 30 16 61 -10 120 -100 151 -228 457
-523 653 -629 45 -24 187 -81 213 -85 9 -1 23 -6 30 -10 6 -5 12 -6 12 -3 0 3
12 1 26 -5 15 -5 43 -12 63 -14 20 -3 47 -8 61 -11 51 -13 306 -11 390 2 341
54 639 227 844 489 26 33 50 65 55 71 29 36 108 188 136 259 69 174 90 293 90
490 -1 152 -8 214 -36 321 -12 44 -22 86 -24 94 -2 8 -20 53 -40 99 -91 206
-180 327 -361 487 -85 76 -90 81 -234 214 -206 190 -200 186 -229 170 -11 -6
-31 -20 -44 -33 -19 -18 -135 -126 -262 -242 -16 -15 -42 -37 -56 -49 -42 -36
-45 -61 -11 -93 38 -37 220 -204 302 -278 227 -205 258 -240 315 -347 159
-301 101 -653 -146 -883 -60 -56 -129 -105 -147 -105 -7 0 -12 -5 -12 -12 0
-6 -3 -8 -7 -5 -3 4 -13 1 -22 -6 -16 -14 -92 -39 -161 -54 -41 -9 -244 -10
-280 -1 -14 3 -47 11 -74 17 -116 27 -262 116 -373 229 -121 123 -527 543
-533 551 -11 16 -97 67 -135 81 -55 19 -160 20 -215 2 -74 -25 -111 -54 -253
-199 -500 -512 -524 -534 -622 -588 -53 -30 -173 -75 -220 -82 -16 -3 -48 -8
-70 -12 -79 -14 -203 -3 -305 26 -258 73 -467 321 -506 598 -5 36 -5 180 0
195 3 8 8 32 11 53 13 93 67 212 133 297 40 51 68 79 207 205 54 50 106 97
115 105 9 8 63 58 120 110 147 134 229 210 266 245 18 17 47 43 66 60 69 61
264 240 285 262 12 13 24 23 27 23 2 0 22 17 43 38 21 20 78 73 126 116 48 44
103 93 121 110 18 17 75 69 126 116 51 47 105 96 120 110 253 234 287 261 316
256 39 -7 27 3 273 -221 30 -27 64 -60 76 -71 41 -40 60 -39 112 8 26 24 53
48 59 53 6 6 55 51 109 100 183 167 196 181 188 201 -7 20 -10 22 -124 125
-87 78 -113 103 -195 178 -156 145 -250 228 -279 248 -79 54 -215 76 -318 52z"/>
</g>
</svg>
